<?xml version="1.0" encoding="UTF-8"?>
<svg id="Layer_2" data-name="Layer 2" xmlns="http://www.w3.org/2000/svg" viewBox="0 0 1600 1460.54">
  <defs>
    <style>
      .cls-1 {
        fill: #9ef304;
      }
    </style>
  </defs>
  <path class="cls-1" d="M1369.47,794.49c-10.87-6.12-39.3-19.2-83.43-18.91-1.26,0-1.81-1.55-.8-2.3,1.62-1.2,2.98-2.69,4.49-4.03,14.81-13.2,6.14-17.22-21.69-16.85-4.54.06-9.07.08-13.6.31-5.03.25-10.06.63-15.08,1.14-5.27.54-10.52,1.22-15.75,2.05-1.2.19-1.95-1.22-1.08-2.07,3.24-3.19,7.65-8.3,8.21-12.94.1-.83-.46-1.61-1.25-1.88-5.19-1.77-26.43-6.32-73.68,14.73-.28.13-.59-.14-.44-.41.88-1.59,2.72-5.24,3.06-8.55.18-1.74-1.01-3.3-2.75-3.44-4.65-.38-15.6-.61-31.31,3.22-1.43.35-2.24-1.59-.96-2.3,15.31-8.5,42.25-25.47,53.93-45.13,1.15-1.93.17-3.9-2.02-4.37-1.94-.42-4.72-.82-8.51-.94-3.09-.1-4.27-4.07-1.7-5.78,17.22-11.48,52.27-37.23,61.54-62.29.6-1.63-.32-3.4-1.95-4.04-2.95-1.15-8.2-2.55-15.83-2.22-1.27.06-1.85-1.58-.79-2.28,12.22-7.96,49.11-31.26,63.02-66.51.94-2.37-.48-4.34-2.48-4.8-4.67-1.05-13.41-2.55-23.18-1.82-1.24.09-1.84-1.49-.83-2.23,11.5-8.39,55.78-46.25,60.35-72.23.61-3.44-.89-4.14-3.02-4.51-4.53-.78-11.66-.68-24.13.46-1.2.11-1.98-1.19-1.14-2.05,9.01-9.12,39.62-39.52,53.1-75.55.3-.81.64-1.93.8-2.77.34-1.78.03-3.76-2.7-3.76-6,0-15.46.94-29.85,5.77-1.17.39-2.19-.88-1.45-1.87,11.32-15.32,53.28-74.85,61.15-126.07.75-4.9-2.42-7.74-7.16-6.27-16.32,5.04-55.68,20.91-104.31,66.25-.9.84-2.37.08-2.07-1.11,1.24-5.03,2.65-13.9.52-23.34-.49-2.17-2.38-3.17-4.4-2.23-8.5,3.94-32.63,17.82-68.9,60.45-.83.97-2.44.29-2.22-.97,1.16-6.76,2.68-19.67.13-31.48-.51-2.38-2.46-3.32-4.52-2.02-10.64,6.74-43.89,30.05-70.52,72.94-.71,1.15-2.45.6-2.31-.75.62-5.91.76-15.32-2.44-25.47-.77-2.44-2.83-3.14-4.79-1.49-9.31,7.86-36.28,32.71-53.46,70.19-.55,1.19-2.32.93-2.4-.38-.27-4.36-1.28-10.8-4.39-18.47-1.06-2.63-3.36-3.05-5.16-.86-11.93,14.57-55.07,68.73-73.37,112.07,9.85-35.89,24.87-95.4,22.5-116.94-.19-1.73-1.64-2.89-3.37-2.67-4.13.53-12.51,2.77-24.28,11.7-.97.74-2.31-.25-1.87-1.39,5.27-13.51,19.99-57.16,11.36-104.99-.43-2.41-2.5-3.29-4.56-1.98-4.22,2.69-12.36,8.49-26.17,20.54-.88.77-2.28.06-2.05-1.09,2.86-14.13,12.29-67.71.74-110.96-.58-2.16-2.58-2.9-4.45-1.68-4.28,2.8-12.66,9.35-25.58,23.84-.81.91-2.33.3-2.16-.91,2.16-15.26,8.4-69.81-7.11-102.43-.86-1.8-2.87-2.21-4.42-.95-3.88,3.12-11.41,9.89-20.67,21.7-.71.91-2.18.51-2.23-.64-.9-18.89-7.39-112.49-48.89-154.4-.66-.67-1.5-.97-2.36-1.03-.11-.01-.22-.06-.33-.06-.11,0-.22.04-.33.06-.86.06-1.7.36-2.36,1.03-41.5,41.91-47.99,135.51-48.89,154.4-.05,1.15-1.52,1.54-2.23.64-9.26-11.82-16.79-18.58-20.67-21.7-1.56-1.25-3.57-.85-4.42.95-15.51,32.62-9.27,87.17-7.11,102.43.17,1.21-1.35,1.82-2.16.91-12.92-14.49-21.3-21.04-25.58-23.84-1.87-1.22-3.87-.47-4.45,1.68-11.55,43.26-2.12,96.83.74,110.96.23,1.15-1.16,1.86-2.04,1.09-13.81-12.05-21.95-17.85-26.17-20.54-2.07-1.31-4.13-.43-4.56,1.98-8.63,47.82,6.09,91.48,11.36,104.99.44,1.14-.9,2.13-1.87,1.39-11.77-8.93-20.16-11.17-24.28-11.7-1.72-.22-3.18.94-3.37,2.67-2.38,21.54,12.64,81.05,22.5,116.94-18.3-43.34-61.44-97.51-73.37-112.07-1.8-2.19-4.1-1.77-5.16.86-3.11,7.68-4.12,14.11-4.39,18.47-.08,1.31-1.85,1.58-2.4.38-17.18-37.48-44.15-62.33-53.46-70.19-1.96-1.65-4.02-.95-4.79,1.49-3.21,10.15-3.07,19.56-2.44,25.47.14,1.35-1.6,1.9-2.31.75-26.63-42.9-59.88-66.2-70.52-72.94-2.06-1.3-4-.37-4.52,2.02-2.55,11.8-1.03,24.72.13,31.48.22,1.26-1.4,1.94-2.22.97-36.28-42.63-60.4-56.51-68.9-60.45-2.02-.94-3.91.06-4.4,2.23-2.13,9.44-.72,18.31.52,23.34.29,1.2-1.17,1.95-2.07,1.11-48.62-45.34-87.99-61.2-104.31-66.25-4.74-1.46-7.91,1.37-7.16,6.27,7.87,51.22,49.83,110.76,61.15,126.07.73.99-.28,2.26-1.45,1.87-14.39-4.83-23.86-5.77-29.85-5.77-2.72,0-3.04,1.99-2.7,3.76.16.84.5,1.96.8,2.77,13.48,36.03,44.08,66.44,53.1,75.55.84.85.06,2.16-1.14,2.05-12.47-1.14-19.6-1.24-24.13-.46-2.13.37-3.63,1.07-3.02,4.51,4.58,25.98,48.85,63.83,60.35,72.23,1.01.74.41,2.32-.83,2.23-9.77-.72-18.52.77-23.18,1.82-2,.45-3.42,2.43-2.48,4.8,13.92,35.25,50.8,58.55,63.02,66.51,1.07.7.49,2.34-.79,2.28-7.63-.33-12.88,1.07-15.83,2.22-1.62.63-2.55,2.4-1.95,4.04,9.26,25.05,44.32,50.81,61.54,62.29,2.57,1.71,1.39,5.68-1.7,5.78-3.8.12-6.57.52-8.51.94-2.2.48-3.17,2.44-2.02,4.37,11.67,19.66,38.62,36.63,53.93,45.13,1.28.71.47,2.64-.96,2.3-15.71-3.83-26.66-3.6-31.31-3.22-1.74.14-2.93,1.7-2.75,3.44.34,3.31,2.18,6.96,3.06,8.55.15.27-.16.53-.44.41-47.25-21.05-68.5-16.5-73.68-14.73-.79.27-1.35,1.05-1.25,1.88.56,4.64,4.97,9.74,8.21,12.94.86.85.11,2.26-1.08,2.07-5.23-.83-10.49-1.51-15.75-2.05-5.01-.51-10.04-.89-15.08-1.14-4.53-.22-9.07-.25-13.6-.31-27.83-.37-36.5,3.65-21.69,16.85,1.5,1.34,2.87,2.84,4.49,4.03,1.01.75.46,2.31-.8,2.3-44.13-.29-72.57,12.79-83.43,18.91-3.04,1.71-3.78,5.38-1.66,8.15,19.7,25.7,74.15,39.18,88.56,42.37,1.1.24,1.31,1.71.33,2.27-5.76,3.28-9.14,8.35-10.71,11.24-.67,1.25-.36,2.81.8,3.63,18.64,13.21,55.1,14.8,67.29,14.96,1.18.02,1.63,1.5.69,2.22-5.5,4.21-8.31,9.63-9.49,12.48-.47,1.13-.27,2.46.65,3.27,14.85,12.95,57.1,11.4,69.85,10.6,1.16-.07,1.75,1.38.88,2.16-6.18,5.56-9.02,9.73-10.31,12.2-.72,1.38-.22,3.09,1.13,3.84,24.64,13.72,60.24,7.91,73.71,4.98,1.27-.28,1.98,1.32,1.01,2.18-6.47,5.66-9.28,10.99-10.44,13.95-.53,1.36.04,2.91,1.34,3.56,22.79,11.44,63.09,6.85,81.69,3.87,1.44-.23,1.98,1.76.66,2.39-28.23,13.42-35.86,23.58-37.92,27.93-.65,1.37-.19,3.01,1.12,3.78,4.09,2.43,10.03,2.19,10.03,2.19-41.09,21.77-50.69,44.93-52.84,52.76-.42,1.53.5,3.13,2.03,3.57,29.33,8.29,60.32-4.55,71.7-10.11,1.14-.56,2.21.76,1.53,1.82-5.98,9.42-4.65,15.63-3.7,18.03.28.7.81,1.25,1.51,1.5,15.21,5.42,45.66-12.68,56.05-19.32,1.04-.66,2.3.44,1.82,1.57-3.03,7.09-4.25,11.9-4.73,14.86-.34,2.08,1.04,3.72,3.14,3.61,40.86-2.18,83.19-27.17,92.81-33.17.85-.53,1.89.2,1.81,1.2-.98,12.34-.4,19.02.21,22.37.31,1.7,1.95,2.69,3.61,2.23,23.12-6.5,42.58-20.54,54.69-31,.07-.06.13-.12.19-.18l-3.13,156.96h50.7l-6.31-156.61c12.12,10.44,31.48,24.36,54.48,30.82,1.66.47,3.3-.53,3.61-2.23.61-3.36,1.19-10.04.21-22.37-.08-1,.96-1.73,1.81-1.2,9.62,6,51.95,30.99,92.81,33.17,2.11.11,3.48-1.53,3.14-3.61-.48-2.95-1.7-7.77-4.73-14.86-.49-1.14.77-2.24,1.82-1.57,10.4,6.64,40.85,24.74,56.05,19.32.71-.25,1.24-.8,1.51-1.5.95-2.4,2.27-8.62-3.7-18.03-.68-1.07.39-2.38,1.53-1.82,11.37,5.56,42.37,18.4,71.7,10.11,1.53-.43,2.45-2.03,2.03-3.57-2.15-7.83-11.75-30.99-52.84-52.76,0,0,5.93.25,10.03-2.19,1.31-.78,1.77-2.41,1.12-3.78-2.06-4.35-9.69-14.51-37.92-27.93-1.32-.63-.78-2.62.66-2.39,18.6,2.98,58.9,7.57,81.69-3.87,1.3-.65,1.87-2.2,1.34-3.56-1.16-2.97-3.97-8.29-10.44-13.95-.98-.85-.26-2.45,1.01-2.18,13.47,2.93,49.07,8.74,73.71-4.98,1.35-.75,1.85-2.47,1.13-3.84-1.29-2.47-4.12-6.64-10.31-12.2-.87-.78-.29-2.23.88-2.16,12.75.79,55,2.35,69.85-10.6.92-.8,1.12-2.14.65-3.27-1.19-2.85-4-8.27-9.49-12.48-.94-.72-.49-2.2.69-2.22,12.19-.15,48.65-1.75,67.29-14.96,1.16-.82,1.47-2.38.8-3.63-1.57-2.89-4.95-7.96-10.71-11.24-.98-.56-.77-2.02.33-2.27,14.41-3.19,68.86-16.67,88.56-42.37,2.12-2.77,1.38-6.44-1.66-8.15Z"/>
  <path class="cls-1" d="M211.52,940.43c-29.03-10.25-45.96-15.69-73.48-27.7-6.33-2.76-10.23-4.73-18.49-8.63-16.5-7.5-35.8-1.21-46,14.86-10.76,20.26-7.2,43.91-5.51,65.58,1.73,19.51,5.28,38.42,6.32,57.71,3.84,54.59-51.05,85.17-70.76,130.66-9.31,23.29.13,57.27,20.75,71.61,10.21,7.11,21.56,11.71,30.75,19.83,12.04,9.07,18.74,25.15,28.84,36.43,17.15,18.4,54.85,28.85,75.16,38.63,187.9,73.71,384.44,117.43,585.5,119.96,140.75,4.33,267.13-2.98,405.35-30.96,114.69-24.67,232.68-61.97,340.43-109.51,16.78-6.87,27.02-18.88,36.6-34.07,9.2-14.59,23.33-25.05,38.46-32.98,27.04-11.23,36.85-43.71,34.14-70.7-2.44-20.93-21.7-37.52-33.78-53.93-13.24-16.59-27.31-36.7-33.22-58.28-11.58-43.86,12.5-87.56,5.38-131.85-3.14-20.57-20.81-35.64-41.21-33.89-8.55.58-21.57,5.44-30.99,8.77-28.91,11.31-56.83,20-85.85,30.86-29.82,11.17-53.08,26.67-43.17,56.91,1.58,5.26,2.27,10.09-3,14.02-48.83,24.53-104.65,41.71-155.26,56.75-67.62,20.94-136.72,34.2-207.39,43.63-62.2,6.61-123.73,11.18-183.15,10.5-51.25-.74-102.74-5.92-153.32-11.7-71.34-8.9-143.94-23.43-212.64-42.72-33.74-9.98-83.59-27.7-118.41-39.5-11.94-4.06-24.73-8.96-36.02-14.53-6.39-3.75-4.69-9.73-1.5-16.52,5.15-11.94,1.47-27.36-6.64-36.58-5.95-7.61-19.33-12.65-30-16.01l-17.89-6.66Z"/>
  <g>
    <path d="M249.62,1146.7l1.16-3.35c10.25-29.69.54-50.96-27.86-60.76l-35.21-12.15c-1.66-.57-3.47.31-4.04,1.97l-60.31,174.71c-.57,1.66.31,3.47,1.97,4.04l37.27,12.87c29.43,10.16,50.96-.32,61.21-30.01l2.14-6.2c8.2-23.75,5.6-39.67-9.65-50.71l.18-.52c16.15.08,26.19-9.74,33.14-29.88ZM200.55,1212.68l-3.47,10.07c-5.26,15.24-13.6,20.15-26.77,15.61l-8.87-3.06c-1.66-.57-2.54-2.38-1.97-4.04l17.09-49.5c.57-1.66,2.38-2.54,4.04-1.97l7.58,2.62c14.46,4.99,17.9,14.27,12.38,30.27ZM194.85,1156.39l-5.52-1.91c-1.66-.57-2.54-2.38-1.97-4.04l14.95-43.31c.57-1.66,2.38-2.54,4.04-1.97l6.81,2.35c11.88,4.1,14.98,12.68,9.9,27.4l-2.05,5.94c-5.26,15.24-13,20.08-26.16,15.53Z"/>
    <path d="M372.03,1130.38l-21.54-6.85c-1.67-.53-3.46.39-3.99,2.06l-43.73,137.55c-4.22,13.27-11.78,16.32-21.41,13.26-9.63-3.06-14.05-9.91-9.83-23.19l43.74-137.56c.53-1.67-.39-3.46-2.06-3.99l-20.5-6.52c-1.67-.53-3.46.39-3.99,2.06l-43.98,138.33c-9.11,28.64,2.58,48.69,28.61,56.97,26.55,8.44,47.67-1.18,56.78-29.82l43.98-138.33c.53-1.67-.39-3.46-2.06-3.99Z"/>
    <path d="M439.42,1150.19l-36.53-9.38c-2.04-.52-4.12.71-4.64,2.74l-45.79,178.46c-.44,1.7.59,3.43,2.29,3.87l37.14,9.53c30.17,7.74,50.78-4.46,58.59-34.89l23.49-91.55c7.81-30.43-4.39-51.05-34.55-58.79ZM445.45,1203.63l-22.54,87.85c-4.01,15.61-11.92,21.2-25.42,17.73l-8.04-2.06c-1.7-.44-2.72-2.17-2.29-3.87l32.64-127.21c.44-1.7,2.17-2.72,3.86-2.29l8.04,2.06c13.49,3.46,17.75,12.17,13.74,27.78Z"/>
    <path d="M637.67,1186.51l-66.13-7.79c-1.72-.18-3.26,1.06-3.44,2.78l-19.19,175.99c-.18,1.72,1.06,3.26,2.78,3.44l71.05,7.79c1.72.18,3.26-1.06,3.44-2.78l2.12-19.98c.18-1.72-1.06-3.26-2.78-3.44l-42.71-4.78c-1.72-.18-2.96-1.72-2.78-3.44l5.24-45.88c.18-1.72,1.72-2.96,3.44-2.78l32.82,3.74c1.72.18,3.26-1.06,3.44-2.78l2.12-19.98c.18-1.72-1.06-3.26-2.78-3.44l-32.82-3.73c-1.72-.18-2.96-1.72-2.78-3.44l4.95-45.31c.18-1.72,1.72-2.96,3.44-2.78l37.79,4.78c1.72.18,3.26-1.06,3.44-2.78l2.12-19.98c.18-1.72-1.06-3.26-2.78-3.44Z"/>
    <path d="M901.05,1354.73l-41.57-.23c-1.73,0-3.13-1.4-3.13-3.12l-.03-49.67c0-1.73,1.4-3.13,3.12-3.13l30.22.24c1.73,0,3.13-1.4,3.12-3.13v-20.1c-.01-1.73-1.41-3.13-3.14-3.12l-30.22-.23c-1.73,0-3.13-1.4-3.13-3.12l-.03-46.98c0-1.73,1.4-3.13,3.12-3.13l35.24.23c1.73,0,3.13-1.4,3.12-3.13v-20.09c-.01-1.73-1.41-3.13-3.14-3.12l-63.74-.22c-1.73,0-3.13,1.4-3.12,3.13l.1,181.93c0,1.73,1.4,3.13,3.13,3.12l70.07.21c1.73,0,3.12-1.4,3.12-3.13v-20.09c-.01-1.73-1.41-3.13-3.14-3.12Z"/>
    <path d="M1127.11,1329.48c-.26-1.71-1.86-2.87-3.57-2.61l-40.4,6.32c-1.71.26-3.3-.9-3.57-2.61l-7.6-49.08c-.26-1.71.91-3.3,2.61-3.57l30.57-4.8c1.71-.26,2.88-1.86,2.61-3.57l-3.07-19.86c-.26-1.71-1.86-2.87-3.57-2.61l-30.57,4.8c-1.71.26-3.3-.9-3.57-2.61l-7.19-46.42c-.26-1.71.9-3.3,2.61-3.57l35.48-6.32c1.71-.26,2.87-1.86,2.61-3.57l-3.07-19.86c-.26-1.71-1.86-2.87-3.57-2.61l-63.64,10.68c-1.71.26-2.88,1.86-2.61,3.57l27.83,179.79c.26,1.71,1.86,2.87,3.57,2.61l68.56-10.68c1.71-.26,2.87-1.86,2.61-3.57l-3.07-19.86Z"/>
    <path d="M696.98,1276.05l-48.15-1.98c-1.75-.07-3.23,1.3-3.3,3.05l-.84,21.5c-.07,1.75,1.3,3.23,3.05,3.3l48.15,1.98c1.75.07,3.23-1.3,3.3-3.05l.84-21.5c.07-1.75-1.3-3.23-3.05-3.3Z"/>
    <path d="M532.65,1259.14l-47.93-4.99c-1.75-.18-3.3,1.09-3.48,2.84l-2.19,21.4c-.18,1.74,1.09,3.3,2.84,3.48l47.93,4.99c1.75.18,3.3-1.09,3.48-2.84l2.19-21.4c.18-1.74-1.09-3.3-2.84-3.48Z"/>
    <path d="M781.85,1283.99l.02-.55c15.44-4.74,22.09-17.12,22.71-38.42l.1-3.55c.92-31.4-14.7-48.79-44.74-49.67l-37.23-1.09c-1.75-.05-3.22,1.33-3.27,3.08l-5.38,184.77c-.05,1.75,1.33,3.22,3.08,3.27l39.42,1.15c31.12.91,48.55-15.53,49.46-46.93l.19-6.56c.73-25.12-6.5-39.54-24.36-45.52ZM747.6,1221.41c.05-1.75,1.51-3.13,3.27-3.08l7.2.21c12.56.37,18.08,7.63,17.63,23.19l-.18,6.28c-.47,16.11-6.41,23.04-20.33,22.63l-5.84-.17c-1.75-.05-3.13-1.51-3.08-3.27l1.33-45.8ZM777.44,1322.67l-.31,10.65c-.47,16.11-6.96,23.3-20.89,22.89l-9.39-.27c-1.75-.05-3.13-1.51-3.08-3.27l1.52-52.35c.05-1.75,1.51-3.13,3.27-3.08l8.02.23c15.29.45,21.35,8.27,20.85,25.2Z"/>
    <path d="M999.9,1180.77l-20.85,2.06c-1.75.17-3.02,1.73-2.85,3.47l9.56,101.67-.55.06-40.93-99.28c-.53-1.3-1.85-2.09-3.25-1.95l-26.55,2.62c-1.75.17-3.02,1.73-2.85,3.47l18.16,183.91c.17,1.75,1.73,3.02,3.47,2.85l20.86-2.06c1.75-.17,3.02-1.73,2.85-3.47l-10.13-110.31.55-.05,45.29,107.55c.53,1.3,1.85,2.09,3.25,1.95l22.75-2.25c1.75-.17,3.02-1.73,2.85-3.47l-18.17-183.92c-.17-1.75-1.73-3.02-3.47-2.85Z"/>
    <rect x="1225.45" y="1135.34" width="28.96" height="191.21" rx="3.18" ry="3.18" transform="translate(-286.05 380.04) rotate(-15.65)"/>
    <path d="M1308.3,1142.12c-.55-1.67.36-3.46,2.02-4.01l23.29-7.66c1.67-.55,2.57-2.34,2.02-4.01l-6.56-19.91c-.55-1.67-2.34-2.57-4.01-2.02l-80.11,26.36c-1.67.55-2.57,2.34-2.02,4.01l6.56,19.91c.55,1.67,2.34,2.57,4.01,2.02l23.28-7.67c1.67-.55,3.46.36,4.01,2.02l49.25,149.64c.55,1.67,2.34,2.57,4.01,2.02l21.46-7.06c1.67-.55,2.57-2.34,2.02-4.01l-49.24-149.64Z"/>
    <path d="M1474.85,1209.74c-7.85-28.31-21.67-41.73-54.45-53.55-9.51-3.65-18.52-5.8-27.11-11.11-8.36-5.19-10.45-10.5-13.04-16.99-2.19-5.37-4.34-12.4-.5-17.52,9.89-12.97,25.82,1.64,30.43,12.68,1.05,2.12,2.42,2.58,4.28,1.56,4.24-2.14,15.16-7.68,19.58-9.92,3.18-1.61,2.75-2.96,1.77-5.94l-1.06-3.26c-8.88-27.17-38.56-38.03-63.04-28.1-15.06,6.11-30.94,24.81-26.15,47.46,7.34,28.31,14.19,43.53,48.45,56.55,8.5,3.18,17.73,5.94,25.64,9.87,9.01,4.6,16.8,11.05,20.88,20.74,2.6,5.78,3.97,13.2-.31,18.45-3.01,3.88-9.84,6.98-14.58,6.18-4.42-.72-7.36-4.22-10-7.67-2.81-3.56-5.23-8.56-7.47-12.31-2.35-3.94-2.88-3.59-9.08-.74-4.18,1.91-9.16,4.09-15.42,7.21-4.72,2.35-4.19,3.35-2.06,7.51,1.92,3.75,4.64,8.5,6.59,12.29,7.67,14.77,21.29,24.41,38.06,24.46,30.9-.15,58.21-27.03,48.6-57.84Z"/>
    <path d="M1198.63,1231.76c-.37-1.69-2.04-2.75-3.72-2.38l-29.77,6.44c-1.69.37-3.35-.7-3.72-2.38l-11-49c-.37-1.69.7-3.35,2.38-3.72l36.26-7.61c1.69-.37,2.75-2.04,2.38-3.72l-4.31-19.62c-.37-1.69-2.04-2.75-3.72-2.38l-64.94,14.05c-1.69.37-2.75,2.04-2.38,3.72l40.01,179.82c.37,1.69,2.04,2.75,3.72,2.38l23.13-5.91c.18-.04.34-.11.51-.18.48-.21.87-.53,1.18-.92.58-.73.84-1.71.6-2.69l-9.55-41.3-7.28-31.08c-.37-1.69.7-3.35,2.38-3.72l29.77-6.43c1.69-.37,2.75-2.04,2.38-3.72l-4.31-19.63Z"/>
  </g>
  <path d="M1160.09,532.94c-.66-7.01-6.76-11.68-12.58-14.06-7.32-2.57-18.45-5.03-25.36-6.33-8.08-1.1-16.99-2.84-24.43-3.74-26.08-2.88-49.48-5.94-74.88-6.44-33.33-.65-64.82-1.07-101.75,7.24-17.3,3.82-37.93,8.93-54.2,13.21-11.36,2.96-16.03,4.73-31.07,7.7-10.72,2.19-16.84,4.54-35.83,4.54,0,0,0,0,0,0-17.07-.28-25.1-2.36-35.83-4.54-15.04-2.97-19.71-4.74-31.07-7.7-16.26-4.28-36.89-9.39-54.2-13.21-36.93-8.31-68.42-7.89-101.75-7.24-25.4.51-48.8,3.56-74.88,6.44-7.43.89-16.35,2.63-24.43,3.74-6.91,1.31-18.04,3.76-25.36,6.33-5.82,2.39-11.92,7.05-12.58,14.06-.87,4.81-.07,12.88.3,17,.16,1.47.61,2.84,1.48,4.05,3.47,5.08,9.63,4.18,14.65,7.07,7.98,4.15,12.59,13.87,14.3,19.49,1.24,4.66,1.38,9.73,2.23,14.83,2.83,18.49,5.37,36.93,11.62,54.65,13.67,36.74,35.85,62.51,63.61,78.03,23.39,12.14,38.53,13.06,57.12,14.6,47,1.69,73.92-9.94,101.8-28.6,13.47-9.61,22.94-19.81,34.75-35.29,12.03-16.51,20.11-31.9,25.11-52.68,2.84-11.08,5.82-21.02,11.91-30.9,3.52-7.78,10.82-13.14,19.13-14.71,1.37-.26,2.78-.26,4.15,0,8.31,1.56,15.61,6.93,19.13,14.71,6.08,9.87,9.07,19.82,11.91,30.9,5,20.77,13.08,36.17,25.11,52.68,11.81,15.49,21.28,25.68,34.75,35.29,27.88,18.66,54.8,30.3,101.8,28.6,18.59-1.54,33.73-2.46,57.12-14.6,27.76-15.52,49.94-41.29,63.61-78.03,6.25-17.72,8.79-36.16,11.62-54.65.85-5.09.98-10.17,2.23-14.83,1.71-5.62,6.32-15.34,14.3-19.49,5.02-2.88,11.19-1.99,14.65-7.07.87-1.22,1.32-2.59,1.48-4.05.36-4.12,1.17-12.19.3-17Z"/>
  <path d="M1025.63,810.5c-14.06-14.7-34.89-30.46-57.63-26.21-10.91,2.04-17.64,12.87-9.29,22.73,3.74,4.68,9.17,8.84,14.38,11.88-31.49,34.07-71.44,60.87-116.82,71.41-81.15,19.6-170.9-14.21-221.9-79.58,5.92-3,14.38-6.22,18.59-11.49,8.35-9.86,1.1-18.73-9.87-20.4-21.99-3.34-54.54,14.25-68.59,28.94-7.1,7.42-15.71,27.73,3.68,29.38,9.1-.22,17.84-4.03,26.35-8.88.35.51.67,1.03,1.02,1.54,38.45,55.16,100.65,92.45,167.07,102.06,71.92,11.69,147.51-13.29,200.39-62.76,10.65-9.76,20.48-20.27,29.51-31.33,5.5,3.24,11.49,5.55,19.19,5.74,19.39-1.65,11.01-25.61,3.91-33.03Z"/>
</svg>