<?xml version="1.0" encoding="UTF-8"?>
<svg id="Artwork" xmlns="http://www.w3.org/2000/svg" xmlns:xlink="http://www.w3.org/1999/xlink" viewBox="0 0 1600 745.28">
  <defs>
    <style>
      .cls-1 {
        fill: url(#linear-gradient-2);
      }

      .cls-2 {
        fill: url(#linear-gradient);
      }

      .cls-3 {
        fill: url(#New_Gradient_Swatch_copy_4);
      }

      .cls-4 {
        fill: url(#New_Gradient_Swatch_copy_4-2);
      }
    </style>
    <linearGradient id="linear-gradient" x1="369.94" y1="875.29" x2="750.46" y2="165.72" gradientUnits="userSpaceOnUse">
      <stop offset="0" stop-color="#a6763c"/>
      <stop offset=".05" stop-color="#a6763c"/>
      <stop offset=".08" stop-color="#b1823f"/>
      <stop offset=".15" stop-color="#c89945"/>
      <stop offset=".23" stop-color="#d9aa4a"/>
      <stop offset=".32" stop-color="#e2b44d"/>
      <stop offset=".42" stop-color="#e6b84e"/>
      <stop offset="1" stop-color="#fff2b3"/>
    </linearGradient>
    <linearGradient id="New_Gradient_Swatch_copy_4" data-name="New Gradient Swatch copy 4" x1="515.47" y1="650.42" x2="5.7" y2="5.32" gradientUnits="userSpaceOnUse">
      <stop offset="0" stop-color="#a6763c"/>
      <stop offset=".02" stop-color="#ac7c3d"/>
      <stop offset=".1" stop-color="#c59644"/>
      <stop offset=".19" stop-color="#d7a949"/>
      <stop offset=".28" stop-color="#e2b44d"/>
      <stop offset=".37" stop-color="#e6b84e"/>
      <stop offset=".79" stop-color="#f7e094"/>
      <stop offset="1" stop-color="#fff2b3"/>
    </linearGradient>
    <linearGradient id="New_Gradient_Swatch_copy_4-2" data-name="New Gradient Swatch copy 4" x1="1085.44" y1="646.32" x2="1582.28" y2="23.56" xlink:href="#New_Gradient_Swatch_copy_4"/>
    <linearGradient id="linear-gradient-2" x1="854.49" y1="79.22" x2="1133.78" y2="851.91" xlink:href="#linear-gradient"/>
  </defs>
  <path class="cls-2" d="M312.03,673.61c92.38,103.87,253.4,86.65,324.84.75,46.21-58.21,69.62-123.69,91.02-194.93,27.5-86.4,42.61-174.21,68.53-263.25,11.29-42.16,37.51-124.19,78.64-111.9,0,0-28.7-19.94-49.5-22.16-112.95-12.06-145.32,76.78-173.41,161.59-35.11,96.19-50.09,196.65-80.15,296.01-14.68,46.23-32.61,98.11-59.35,135.44-41,57.24-117.56,59.29-200.61-1.55Z"/>
  <path class="cls-3" d="M409.5,500.58c-29.62-124.11-55.54-279.75-78.13-346.11C286.95,49.07,206.98-4.47,91.46.31,48.37,2.32-.03,16.88,0,19.35c.25,2.01,60.97,3.41,100.5,59.5,49.54,70.3,66.69,157.92,87.96,240.28,23.87,97.11,50.8,248.26,109.5,337.13,3.97,6.01,8.62,11.71,14.52,15.83,140.89,98.59,198.52,1.28,198.52,1.28,0,0-72.61-49.91-101.5-172.77Z"/>
  <path class="cls-4" d="M1187.3,500.58c31.91-118.11,55.05-262.24,80.16-341.48C1309.32,51.16,1391.95-4.7,1508.54.31c43.09,2.01,91.49,16.57,91.46,19.04-.25,2.01-60.97,3.41-100.5,59.5-49.54,70.3-66.69,157.92-87.96,240.28-23.87,97.11-42.27,254.52-109.5,337.13-19.15,23.53-34.65,33.19-40.52,37.34-54.28,38.38-139.12,36.51-178.52-29.86,0,0,66.26-22.15,104.3-163.14Z"/>
  <path class="cls-1" d="M1215.66,717.53c-11.04,8.78-138.45,64.3-250.42-48.36-50.45-50.75-75.17-127.37-94.43-188.33-20.18-62.29-72.01-260.63-72.01-260.63,8.88-31.2,26.59-99.8,62.2-113.52,32.85-12,72.89,96.89,83.67,126.81,29.96,89.56,48.95,184.51,73.41,275.54,13.16,45.43,30.58,89.67,49.83,132.83,6.75,13.53,38.67,98,147.76,75.66Z"/>
</svg>